<?xml version="1.0" encoding="utf-8"?>
<!-- Generator: Adobe Illustrator 25.2.3, SVG Export Plug-In . SVG Version: 6.00 Build 0)  -->
<svg version="1.1" id="Layer_1" xmlns="http://www.w3.org/2000/svg" xmlns:xlink="http://www.w3.org/1999/xlink" x="0px" y="0px"
	 viewBox="0 0 48 48" style="enable-background:new 0 0 48 48;" xml:space="preserve">
<style type="text/css">
	.st0{fill:url(#SVGID_1_);}
	.st1{fill:#FFFFFF;}
</style>
<linearGradient id="SVGID_1_" gradientUnits="userSpaceOnUse" x1="24" y1="4.2302" x2="24" y2="49.3889" gradientTransform="matrix(1 0 0 -1 0 50)">
	<stop  offset="0" style="stop-color:#0062E0"/>
	<stop  offset="1" style="stop-color:#19AFFF"/>
</linearGradient>
<path class="st0" d="M20.1,47.1C9.1,45.2,0.6,35.6,0.6,24C0.6,11.1,11.1,0.6,24,0.6S47.4,11.1,47.4,24c0,11.6-8.4,21.2-19.5,23.1
	l-1.3-1h-5.2L20.1,47.1z"/>
<path class="st1" d="M33.1,30.7l1-6.5h-6.2v-4.5c0-1.8,0.6-3.2,3.5-3.2h3v-6c-1.7-0.3-3.5-0.5-5.2-0.5c-5.3,0-9.1,3.2-9.1,9.1v5.2
	h-5.8v6.5h5.8v16.5c1.3,0.3,2.6,0.4,3.9,0.4s2.6-0.1,3.9-0.4V30.7H33.1z"/>
</svg>
