<svg width="48" height="48" viewBox="0 0 48 48" fill="none" xmlns="http://www.w3.org/2000/svg">
<path fill-rule="evenodd" clip-rule="evenodd" d="M38.4 24.341C38.4 23.2773 38.3045 22.2546 38.1273 21.2728H24V27.0751H32.0727C31.725 28.9501 30.6682 30.5387 29.0795 31.6024V35.366H33.9273C36.7636 32.7546 38.4 28.9092 38.4 24.341Z" fill="#4285F4"/>
<path fill-rule="evenodd" clip-rule="evenodd" d="M24 39.0001C28.05 39.0001 31.4454 37.6569 33.9273 35.366L29.0795 31.6023C27.7364 32.5023 26.0182 33.0341 24 33.0341C20.0932 33.0341 16.7863 30.3955 15.6068 26.85H10.5954V30.7364C13.0636 35.6387 18.1363 39.0001 24 39.0001Z" fill="#34A853"/>
<path fill-rule="evenodd" clip-rule="evenodd" d="M15.6068 26.8501C15.3068 25.9501 15.1363 24.9887 15.1363 24.0001C15.1363 23.0115 15.3068 22.0501 15.6068 21.1501V17.2637H10.5954C9.5795 19.2887 8.99995 21.5796 8.99995 24.0001C8.99995 26.4206 9.5795 28.7115 10.5954 30.7365L15.6068 26.8501Z" fill="#FBBC05"/>
<path fill-rule="evenodd" clip-rule="evenodd" d="M24 14.966C26.2023 14.966 28.1795 15.7228 29.7341 17.2092L34.0364 12.9069C31.4386 10.4864 28.0432 9.00006 24 9.00006C18.1363 9.00006 13.0636 12.3614 10.5954 17.2637L15.6068 21.1501C16.7863 17.6046 20.0932 14.966 24 14.966Z" fill="#EA4335"/>
</svg>
